<svg xmlns="http://www.w3.org/2000/svg" xmlns:xlink="http://www.w3.org/1999/xlink" width="30" height="31" viewBox="0 0 30 31"><defs><radialGradient id="a" cx="0.5" cy="0.5" r="0.5" gradientUnits="objectBoundingBox"><stop offset="0" stop-color="red"/><stop offset="1" stop-color="#c00"/></radialGradient></defs><path d="M15,31a14.538,14.538,0,0,1-5.839-1.218,14.856,14.856,0,0,1-2.548-1.429,15.226,15.226,0,0,1-2.22-1.893,15.513,15.513,0,0,1-1.832-2.294A15.694,15.694,0,0,1,.3,18.624a16.163,16.163,0,0,1,0-6.248A15.694,15.694,0,0,1,2.562,6.834,15.513,15.513,0,0,1,4.393,4.54a15.227,15.227,0,0,1,2.22-1.893A14.856,14.856,0,0,1,9.161,1.218a14.582,14.582,0,0,1,11.677,0,14.856,14.856,0,0,1,2.548,1.429,15.227,15.227,0,0,1,2.22,1.893,15.513,15.513,0,0,1,1.832,2.294A15.694,15.694,0,0,1,29.7,12.376a16.163,16.163,0,0,1,0,6.248,15.694,15.694,0,0,1-2.257,5.542,15.513,15.513,0,0,1-1.832,2.294,15.227,15.227,0,0,1-2.22,1.893,14.856,14.856,0,0,1-2.548,1.429A14.538,14.538,0,0,1,15,31Zm.035-13.153h0l4.472,4.621a1.484,1.484,0,0,0,2.236,0,1.6,1.6,0,0,0,0-2.311l-4.472-4.621,4.472-4.621a1.7,1.7,0,0,0-.148-2.157A1.559,1.559,0,0,0,19.507,8.6l-4.472,4.621L10.563,8.6a1.559,1.559,0,0,0-2.088.153,1.7,1.7,0,0,0-.148,2.157L12.8,15.536,8.327,20.157a1.6,1.6,0,0,0,0,2.311,1.484,1.484,0,0,0,2.236,0l4.472-4.621Z" fill="url(#a)"/></svg>