<svg xmlns="http://www.w3.org/2000/svg" xmlns:xlink="http://www.w3.org/1999/xlink" width="30" height="31" viewBox="0 0 30 31"><defs><radialGradient id="a" cx="0.5" cy="0.5" r="0.5" gradientUnits="objectBoundingBox"><stop offset="0" stop-color="#0080ff"/><stop offset="1" stop-color="#1e00b8"/></radialGradient></defs><path d="M15,31a14.538,14.538,0,0,1-5.839-1.218,14.856,14.856,0,0,1-2.548-1.429,15.226,15.226,0,0,1-2.22-1.893,15.513,15.513,0,0,1-1.832-2.294A15.694,15.694,0,0,1,.3,18.624a16.163,16.163,0,0,1,0-6.248A15.694,15.694,0,0,1,2.562,6.834,15.513,15.513,0,0,1,4.393,4.54a15.227,15.227,0,0,1,2.22-1.893A14.856,14.856,0,0,1,9.161,1.218a14.582,14.582,0,0,1,11.677,0,14.856,14.856,0,0,1,2.548,1.429,15.227,15.227,0,0,1,2.22,1.893,15.513,15.513,0,0,1,1.832,2.294A15.694,15.694,0,0,1,29.7,12.376a16.163,16.163,0,0,1,0,6.248,15.694,15.694,0,0,1-2.257,5.542,15.513,15.513,0,0,1-1.832,2.294,15.227,15.227,0,0,1-2.22,1.893,14.856,14.856,0,0,1-2.548,1.429A14.538,14.538,0,0,1,15,31ZM13.929,13.86l-1.952,7.008a2.249,2.249,0,0,0,.216,1.939,2.1,2.1,0,0,0,1.634.98h.008a1.826,1.826,0,0,0,1.379-.637L17.268,21.4a.383.383,0,0,0,.076-.437.357.357,0,0,0-.322-.205.35.35,0,0,0-.062.006l-2.312.212,0-.018c.194-.718,1.2-4.43,1.948-6.99a2.249,2.249,0,0,0-.216-1.939,2.1,2.1,0,0,0-1.634-.98h-.009a1.826,1.826,0,0,0-1.378.637l-2.055,1.752a.383.383,0,0,0-.076.437.356.356,0,0,0,.321.205.35.35,0,0,0,.062-.006l2.312-.212ZM16.37,6.534a1.6,1.6,0,1,0,1.546,1.6A1.574,1.574,0,0,0,16.37,6.534Z" fill="url(#a)"/></svg>