<svg xmlns="http://www.w3.org/2000/svg" xmlns:xlink="http://www.w3.org/1999/xlink" width="29.75" height="29.702" viewBox="0 0 29.75 29.702"><defs><radialGradient id="a" cx="0.5" cy="0.581" r="0.388" gradientTransform="matrix(0.608, 0.794, -0.736, 0.564, 0.624, -0.143)" gradientUnits="objectBoundingBox"><stop offset="0" stop-color="#fe0"/><stop offset="1" stop-color="#ffbb01"/></radialGradient></defs><path d="M14.875,29.7A14.7,14.7,0,0,1,2.011,22.273,14.7,14.7,0,0,1,2.018,7.418,14.7,14.7,0,0,1,14.875,0,14.7,14.7,0,0,1,27.732,7.418a14.7,14.7,0,0,1,.007,14.855A14.7,14.7,0,0,1,14.875,29.7Zm0-10.866a1.993,1.993,0,1,0,1.993,1.993A2,2,0,0,0,14.875,18.837Zm0-11.957a2,2,0,0,0-1.993,1.993v5.979a1.993,1.993,0,0,0,3.986,0V8.873A2,2,0,0,0,14.875,6.88Z" transform="translate(0 0)" fill="url(#a)"/></svg>