<svg xmlns="http://www.w3.org/2000/svg" xmlns:xlink="http://www.w3.org/1999/xlink" width="30" height="31" viewBox="0 0 30 31"><defs><radialGradient id="a" cx="0.5" cy="0.5" r="0.501" gradientUnits="objectBoundingBox"><stop offset="0" stop-color="#0f1"/><stop offset="1" stop-color="#10cf50"/></radialGradient></defs><path d="M15,31a14.538,14.538,0,0,1-5.839-1.218,14.856,14.856,0,0,1-2.548-1.429,15.226,15.226,0,0,1-2.22-1.893,15.513,15.513,0,0,1-1.832-2.294A15.694,15.694,0,0,1,.3,18.624a16.163,16.163,0,0,1,0-6.248A15.694,15.694,0,0,1,2.562,6.834,15.513,15.513,0,0,1,4.393,4.54a15.227,15.227,0,0,1,2.22-1.893A14.856,14.856,0,0,1,9.161,1.218a14.582,14.582,0,0,1,11.677,0,14.856,14.856,0,0,1,2.548,1.429,15.227,15.227,0,0,1,2.22,1.893,15.513,15.513,0,0,1,1.832,2.294A15.694,15.694,0,0,1,29.7,12.376a16.163,16.163,0,0,1,0,6.248,15.694,15.694,0,0,1-2.257,5.542,15.513,15.513,0,0,1-1.832,2.294,15.227,15.227,0,0,1-2.22,1.893,14.856,14.856,0,0,1-2.548,1.429A14.538,14.538,0,0,1,15,31ZM7.633,13.221a.949.949,0,0,0-.687.294L5.573,14.934a1.029,1.029,0,0,0,0,1.419l6.312,6.523a.949.949,0,0,0,1.373,0l11.168-11.54a1.029,1.029,0,0,0,0-1.419L23.054,8.5a.949.949,0,0,0-1.373,0l-9.108,9.412L8.32,13.515A.949.949,0,0,0,7.633,13.221Z" fill="url(#a)"/></svg>